<?xml version="1.0" encoding="UTF-8"?>
<svg width="32px" height="31px" viewBox="0 0 32 31" version="1.1" xmlns="http://www.w3.org/2000/svg" xmlns:xlink="http://www.w3.org/1999/xlink">
    <!-- Generator: Sketch 63.1 (92452) - https://sketch.com -->
    <title>Icon/Cart</title>
    <desc>Created with Sketch.</desc>
    <g id="Subs" stroke="none" stroke-width="1" fill="none" fill-rule="evenodd">
        <g id="Search_Results" transform="translate(-1149.000000, -35.000000)">
            <g id="Group-12">
                <g id="Group-7" transform="translate(1114.000000, 32.000000)">
                    <g id="Icon/Cart" transform="translate(34.000000, 0.000000)">
                        <g id="ic-shopping-cart-48px">
                            <polygon id="Path" points="0 0 37 0 37 37 0 37"></polygon>
                            <path d="M10.7916667,27.75 C9.088125,27.75 7.72375,29.1297917 7.72375,30.8333333 C7.72375,32.536875 9.088125,33.9166667 10.7916667,33.9166667 C12.4952083,33.9166667 13.875,32.536875 13.875,30.8333333 C13.875,29.1297917 12.4952083,27.75 10.7916667,27.75 Z M1.54166667,3.08333333 L1.54166667,6.16666667 L4.625,6.16666667 L10.1672917,17.8602083 L8.08604167,21.6372917 C7.84708333,22.084375 7.70833333,22.5854167 7.70833333,23.125 C7.70833333,24.8285417 9.088125,26.2083333 10.7916667,26.2083333 L29.2916667,26.2083333 L29.2916667,23.125 L11.446875,23.125 C11.2310417,23.125 11.0614583,22.9554167 11.0614583,22.7395833 C11.0614583,22.6702083 11.076875,22.6085417 11.1077083,22.5545833 L12.4875,20.0416667 L23.9729167,20.0416667 C25.1291667,20.0416667 26.1389583,19.401875 26.6708333,18.45375 L32.1822917,8.44833333 C32.305625,8.2325 32.375,7.978125 32.375,7.70833333 C32.375,6.85270833 31.68125,6.16666667 30.8333333,6.16666667 L8.03979167,6.16666667 L6.57520833,3.08333333 L1.54166667,3.08333333 Z M26.2083333,27.75 C24.5047917,27.75 23.1404167,29.1297917 23.1404167,30.8333333 C23.1404167,32.536875 24.5047917,33.9166667 26.2083333,33.9166667 C27.911875,33.9166667 29.2916667,32.536875 29.2916667,30.8333333 C29.2916667,29.1297917 27.911875,27.75 26.2083333,27.75 Z" id="Shape" fill="#D2CE9E"></path>
                        </g>
                    </g>
                </g>
            </g>
        </g>
    </g>
</svg>