<?xml version="1.0" encoding="UTF-8"?>
<svg xmlns="http://www.w3.org/2000/svg" xmlns:xlink="http://www.w3.org/1999/xlink" width="1296pt" height="1727.999927pt" viewBox="0 0 1296 1727.999927" version="1.2">
<defs>
<clipPath id="clip1">
  <path d="M 1056 1228 L 1087 1228 L 1087 1253.203125 L 1056 1253.203125 Z M 1056 1228 "/>
</clipPath>
</defs>
<g id="surface1">
<rect x="0" y="0" width="1296" height="1727.999927" style="fill:rgb(100%,100%,100%);fill-opacity:1;stroke:none;"/>
<rect x="0" y="0" width="1296" height="1727.999927" style="fill:rgb(100%,100%,100%);fill-opacity:1;stroke:none;"/>
<rect x="0" y="0" width="1296" height="1727.999927" style="fill:rgb(36.079407%,88.238525%,90.19928%);fill-opacity:1;stroke:none;"/>
<path style=" stroke:none;fill-rule:nonzero;fill:rgb(15.689087%,34.118652%,43.139648%);fill-opacity:1;" d="M 1059.167969 843.9375 C 1059.089844 843.652344 1057.339844 840.242188 1054.0625 833.90625 C 1051.171875 828.335938 1047.605469 821.542969 1044.039062 815.066406 C 1048.371094 822.789062 1052.972656 831.664062 1056.226562 838 C 1059.726562 844.84375 1060.800781 846.8125 1059.167969 843.9375 Z M 1042.835938 814.507812 C 1041.953125 813.121094 1040.695312 811.011719 1040.019531 809.777344 C 1039.359375 808.546875 1039.542969 808.675781 1040.4375 810.0625 C 1041.316406 811.449219 1042.550781 813.574219 1043.199219 814.792969 C 1043.859375 816.023438 1043.703125 815.882812 1042.835938 814.507812 Z M 1090.503906 973.4375 C 1088.039062 979.449219 1084.515625 972.386719 1084.515625 972.386719 C 1084.515625 972.386719 1085.34375 952.601562 1086.535156 944.410156 C 1087.171875 940.03125 1088.273438 940.121094 1089.308594 941.222656 C 1084.566406 907.636719 1074.15625 874.929688 1059.183594 844.53125 C 1026.070312 777.28125 1032.929688 799.945312 1034.808594 803.132812 C 1050.378906 829.667969 1067.308594 857.957031 1079.003906 886.644531 C 1093.71875 922.785156 1094.367188 942.46875 1093.148438 952.277344 C 1094.445312 957.925781 1095.972656 965.855469 1096.363281 974.019531 C 1097.101562 989.609375 1092.5625 999.910156 1092.5625 999.910156 C 1092.5625 999.910156 1090.671875 987.910156 1090.503906 973.4375 "/>
<path style=" stroke:none;fill-rule:nonzero;fill:rgb(15.689087%,34.118652%,43.139648%);fill-opacity:1;" d="M 1071.914062 930.960938 C 1071.5625 931.273438 1071.136719 930.765625 1070.734375 929.433594 C 1070.394531 928.253906 1070.136719 926.660156 1069.980469 925 C 1070.019531 927.113281 1070.242188 929.289062 1070.640625 930.636719 C 1071.070312 932.089844 1071.574219 932.152344 1071.914062 930.960938 Z M 1071.058594 923.574219 C 1071.082031 923.121094 1071.042969 922.550781 1070.964844 922.292969 C 1070.886719 922.035156 1070.796875 922.203125 1070.773438 922.65625 C 1070.746094 923.097656 1070.773438 923.667969 1070.863281 923.925781 C 1070.925781 924.183594 1071.019531 924.027344 1071.058594 923.574219 Z M 1063.160156 963.292969 C 1061.980469 964.847656 1061.085938 963.070312 1061.085938 963.070312 C 1061.085938 963.070312 1062.214844 958.003906 1063.410156 956.023438 C 1064.042969 954.960938 1064.589844 955.023438 1064.976562 955.296875 C 1065.730469 950.242188 1066.972656 941.832031 1068.242188 934.007812 C 1070.410156 920.59375 1071.289062 918.730469 1071.523438 919.402344 C 1071.746094 920.078125 1073.457031 928.34375 1070.851562 943.140625 C 1069.476562 950.917969 1067.140625 955.59375 1065.675781 957.980469 C 1065.730469 959.351562 1065.703125 961.296875 1065.339844 963.34375 C 1064.640625 967.257812 1062.875 970.09375 1062.875 970.09375 C 1062.875 970.09375 1062.527344 966.972656 1063.160156 963.292969 "/>
<path style=" stroke:none;fill-rule:nonzero;fill:rgb(15.689087%,34.118652%,43.139648%);fill-opacity:1;" d="M 1022.832031 1133.195312 C 1022.234375 1132.949219 1021.730469 1132.210938 1021.46875 1131.082031 C 1021.25 1130.085938 1021.273438 1128.972656 1021.496094 1127.972656 C 1020.976562 1129.0625 1020.78125 1130.460938 1021.027344 1131.589844 C 1021.300781 1132.820312 1022.027344 1133.402344 1022.832031 1133.195312 Z M 1023.542969 1128.582031 L 1023.777344 1127.882812 L 1023.363281 1127.792969 L 1023.128906 1128.503906 Z M 1006.847656 1144.675781 C 1005.433594 1144.871094 1004.617188 1143.121094 1004.617188 1143.121094 C 1004.617188 1143.121094 1006.222656 1140.53125 1007.753906 1140.128906 C 1008.570312 1139.910156 1009.207031 1140.363281 1009.609375 1140.828125 C 1011.019531 1138.199219 1013.574219 1133.960938 1016.878906 1130.851562 C 1022.546875 1125.523438 1025.4375 1126.703125 1025.578125 1127.300781 C 1025.734375 1127.894531 1024.917969 1132.78125 1018.628906 1138.5625 C 1015.324219 1141.59375 1012.058594 1142.65625 1010.125 1143.070312 C 1010.035156 1143.976562 1009.800781 1145.195312 1009.207031 1146.246094 C 1008.078125 1148.253906 1006.042969 1148.964844 1006.042969 1148.964844 C 1006.042969 1148.964844 1005.859375 1146.644531 1006.847656 1144.675781 "/>
<path style=" stroke:none;fill-rule:nonzero;fill:rgb(15.689087%,34.118652%,43.139648%);fill-opacity:1;" d="M 1074.335938 882.769531 C 1074.390625 881.398438 1072.277344 877.042969 1068.269531 870.164062 C 1064.71875 864.113281 1060.347656 857.242188 1056.019531 851.074219 C 1061.28125 857.917969 1066.921875 866.5625 1070.925781 873.441406 C 1075.246094 880.867188 1076.527344 884.183594 1074.335938 882.769531 Z M 1054.332031 854.472656 C 1053.230469 853.410156 1051.675781 851.476562 1050.886719 850.144531 C 1050.09375 848.796875 1050.378906 848.574219 1051.480469 849.636719 C 1052.582031 850.6875 1054.101562 852.644531 1054.878906 853.976562 C 1055.667969 855.300781 1055.421875 855.519531 1054.332031 854.472656 Z M 1116.015625 979.996094 C 1115.640625 986.070312 1111.308594 977.972656 1111.308594 977.972656 C 1111.308594 977.972656 1106.953125 956.269531 1105.386719 947.832031 C 1104.554688 943.324219 1105.296875 943.828125 1106.359375 945.359375 C 1097.894531 919.792969 1087.46875 894.574219 1073.3125 871.875 C 1049.277344 833.347656 1041.71875 843.636719 1043.921875 846.917969 C 1059.53125 870.164062 1083.800781 892.101562 1099.035156 917.820312 C 1111.542969 938.957031 1110.414062 948.429688 1112.335938 958.121094 C 1114.902344 964.40625 1118.246094 973.074219 1120.632812 981.796875 C 1125.183594 998.445312 1123.71875 1008.96875 1123.71875 1008.96875 C 1123.71875 1008.96875 1119.710938 995.6875 1116.015625 979.996094 "/>
<path style=" stroke:none;fill-rule:nonzero;fill:rgb(15.689087%,34.118652%,43.139648%);fill-opacity:1;" d="M 1114.109375 1021.550781 C 1112.527344 1022.070312 1110.558594 1019.644531 1108.808594 1014.332031 C 1107.265625 1009.65625 1106.152344 1003.617188 1105.386719 997.5 C 1105.710938 1005.105469 1106.578125 1013.140625 1108.289062 1018.425781 C 1110.128906 1024.15625 1112.566406 1025.140625 1114.109375 1021.550781 Z M 1109.664062 993.976562 C 1109.703125 992.40625 1109.40625 990.28125 1109.015625 989.234375 C 1108.640625 988.183594 1108.328125 988.625 1108.304688 990.191406 C 1108.277344 991.773438 1108.535156 993.886719 1108.910156 994.921875 C 1109.273438 995.957031 1109.636719 995.53125 1109.664062 993.976562 Z M 1054.773438 1115.730469 C 1047.515625 1119.097656 1043.960938 1112.644531 1043.960938 1112.644531 C 1043.960938 1112.644531 1053.207031 1098.144531 1060.726562 1093.3125 C 1064.730469 1090.734375 1067.582031 1091.5625 1069.421875 1092.949219 C 1076.539062 1077.828125 1088.300781 1052.027344 1096.492188 1026.757812 C 1110.558594 983.429688 1109.273438 976.820312 1110.207031 979.554688 C 1118.660156 1004.382812 1116.9375 1035.6875 1106.320312 1061.488281 C 1096.519531 1085.316406 1080.675781 1096.785156 1071.40625 1102.367188 C 1070.8125 1106.789062 1069.4375 1112.824219 1066.15625 1118.683594 C 1059.894531 1129.890625 1048.886719 1136.164062 1048.886719 1136.164062 C 1048.886719 1136.164062 1049.042969 1126.355469 1054.773438 1115.730469 "/>
<path style=" stroke:none;fill-rule:nonzero;fill:rgb(15.689087%,34.118652%,43.139648%);fill-opacity:1;" d="M 1094.46875 1150.183594 C 1092.953125 1149.808594 1091.644531 1148.109375 1090.984375 1145.273438 C 1090.398438 1142.785156 1090.4375 1139.894531 1090.945312 1137.226562 C 1089.699219 1140.269531 1089.195312 1143.925781 1089.84375 1146.761719 C 1090.554688 1149.820312 1092.421875 1151.050781 1094.46875 1150.183594 Z M 1096.078125 1137.914062 C 1096.519531 1137.382812 1096.765625 1136.5 1096.621094 1135.957031 C 1096.492188 1135.410156 1096.039062 1135.398438 1095.597656 1135.929688 C 1095.171875 1136.460938 1094.910156 1137.34375 1095.039062 1137.875 C 1095.183594 1138.417969 1095.648438 1138.445312 1096.078125 1137.914062 Z M 1051.144531 1183.277344 C 1047.28125 1183.964844 1045.335938 1179.84375 1045.335938 1179.84375 C 1045.335938 1179.84375 1050.054688 1173.367188 1054.242188 1172.082031 C 1056.472656 1171.394531 1058.105469 1172.378906 1059.144531 1173.445312 C 1063.277344 1166.691406 1070.601562 1155.523438 1079.238281 1146.425781 C 1094.042969 1130.835938 1100.601562 1132.109375 1101.015625 1133.597656 C 1101.433594 1135.074219 1100.355469 1148.796875 1083.464844 1165.433594 C 1074.597656 1174.183594 1065.535156 1177.472656 1060.257812 1178.832031 C 1059.921875 1181.074219 1059.144531 1184.070312 1057.367188 1186.726562 C 1054.007812 1191.777344 1048.34375 1193.65625 1048.34375 1193.65625 C 1048.34375 1193.65625 1048.1875 1188.175781 1051.144531 1183.277344 "/>
<path style=" stroke:none;fill-rule:nonzero;fill:rgb(15.689087%,34.118652%,43.139648%);fill-opacity:1;" d="M 1140.933594 1039.003906 C 1139.46875 1038.550781 1137.238281 1035.261719 1134.789062 1029.390625 C 1132.625 1024.21875 1130.652344 1018.027344 1129.03125 1012.089844 C 1130.433594 1019.050781 1132.492188 1027.019531 1134.90625 1032.875 C 1137.523438 1039.1875 1139.921875 1041.324219 1140.933594 1039.003906 Z M 1132.855469 1012.117188 C 1132.714844 1010.835938 1132.15625 1008.851562 1131.625 1007.683594 C 1131.105469 1006.53125 1130.820312 1006.636719 1130.988281 1007.917969 C 1131.160156 1009.203125 1131.675781 1011.171875 1132.183594 1012.324219 C 1132.699219 1013.476562 1133.011719 1013.375 1132.855469 1012.117188 Z M 1106.589844 1116.90625 C 1101.328125 1119.070312 1097.816406 1111.375 1097.816406 1111.375 C 1097.816406 1111.375 1103.144531 1097.640625 1108.265625 1094.128906 C 1111 1092.25 1113.320312 1093.789062 1114.964844 1095.667969 C 1118.351562 1081.246094 1123.25 1056.875 1125.832031 1035.222656 C 1130.265625 998.109375 1130.511719 998.121094 1132.054688 1001.308594 C 1133.59375 1004.511719 1149.101562 1035.296875 1140.078125 1073.511719 C 1135.332031 1093.582031 1124.429688 1102.199219 1117.894531 1106.113281 C 1118.050781 1110.648438 1117.804688 1116.726562 1115.976562 1122.3125 C 1112.488281 1133 1104.386719 1137.808594 1104.386719 1137.808594 C 1104.386719 1137.808594 1103.429688 1127.183594 1106.589844 1116.90625 "/>
<g clip-path="url(#clip1)" clip-rule="nonzero">
<path style=" stroke:none;fill-rule:nonzero;fill:rgb(15.689087%,34.118652%,43.139648%);fill-opacity:1;" d="M 1082.285156 1236.210938 C 1081.453125 1235.953125 1080.753906 1235.125 1080.457031 1233.851562 C 1080.183594 1232.726562 1080.273438 1231.457031 1080.613281 1230.339844 C 1079.847656 1231.574219 1079.496094 1233.140625 1079.792969 1234.421875 C 1080.132812 1235.796875 1081.144531 1236.457031 1082.285156 1236.210938 Z M 1083.503906 1230.976562 L 1083.867188 1230.171875 L 1083.28125 1230.09375 L 1082.917969 1230.898438 Z M 1059.3125 1248.535156 C 1057.355469 1248.636719 1056.34375 1246.589844 1056.34375 1246.589844 C 1056.34375 1246.589844 1058.675781 1243.882812 1060.800781 1243.546875 C 1061.941406 1243.363281 1062.800781 1243.921875 1063.34375 1244.480469 C 1065.429688 1241.628906 1069.203125 1237.027344 1073.988281 1233.582031 C 1082.207031 1227.671875 1086.277344 1228.800781 1086.472656 1229.460938 C 1086.652344 1230.121094 1085.253906 1235.847656 1076.085938 1242.277344 C 1071.265625 1245.65625 1066.636719 1246.679688 1063.941406 1247.003906 C 1063.769531 1248.015625 1063.394531 1249.351562 1062.515625 1250.476562 C 1060.839844 1252.628906 1058.003906 1253.226562 1058.003906 1253.226562 C 1058.003906 1253.226562 1057.859375 1250.648438 1059.3125 1248.535156 "/>
</g>
<path style=" stroke:none;fill-rule:nonzero;fill:rgb(15.689087%,34.118652%,43.139648%);fill-opacity:1;" d="M 1135.773438 1185.53125 C 1134.21875 1185.171875 1132.804688 1183.523438 1131.988281 1180.75 C 1131.289062 1178.300781 1131.171875 1175.464844 1131.546875 1172.847656 C 1130.445312 1175.839844 1130.109375 1179.429688 1130.910156 1182.203125 C 1131.78125 1185.210938 1133.738281 1186.402344 1135.773438 1185.53125 Z M 1136.796875 1173.535156 C 1137.210938 1173.003906 1137.421875 1172.148438 1137.25 1171.617188 C 1137.097656 1171.070312 1136.617188 1171.070312 1136.203125 1171.589844 C 1135.785156 1172.109375 1135.578125 1172.964844 1135.746094 1173.496094 C 1135.902344 1174.027344 1136.382812 1174.039062 1136.796875 1173.535156 Z M 1093.171875 1218.367188 C 1089.273438 1219.015625 1087.222656 1214.816406 1087.222656 1214.816406 C 1087.222656 1214.816406 1091.8125 1208.402344 1095.972656 1207.171875 C 1098.203125 1206.523438 1099.875 1207.523438 1100.964844 1208.609375 C 1104.917969 1201.886719 1111.867188 1190.808594 1120.164062 1181.851562 C 1134.375 1166.511719 1141.101562 1167.859375 1141.59375 1169.308594 C 1142.113281 1170.773438 1141.75 1184.03125 1125.285156 1200.578125 C 1116.636719 1209.273438 1107.550781 1212.640625 1102.261719 1213.976562 C 1101.976562 1216.230469 1101.277344 1219.199219 1099.566406 1221.855469 C 1096.285156 1226.894531 1090.566406 1228.773438 1090.566406 1228.773438 C 1090.566406 1228.773438 1090.296875 1223.265625 1093.171875 1218.367188 "/>
<path style=" stroke:none;fill-rule:nonzero;fill:rgb(15.689087%,34.118652%,43.139648%);fill-opacity:1;" d="M 1130.71875 1141.65625 C 1128.746094 1141.191406 1126.867188 1138.792969 1125.6875 1134.726562 C 1124.636719 1131.148438 1124.328125 1126.9375 1124.574219 1123.011719 C 1123.457031 1127.535156 1123.277344 1132.871094 1124.441406 1136.941406 C 1125.699219 1141.332031 1128.242188 1143.019531 1130.71875 1141.65625 Z M 1130.988281 1123.75 C 1131.445312 1122.960938 1131.613281 1121.664062 1131.351562 1120.859375 C 1131.105469 1120.070312 1130.550781 1120.082031 1130.09375 1120.886719 C 1129.640625 1121.6875 1129.472656 1122.960938 1129.71875 1123.75 C 1129.953125 1124.539062 1130.535156 1124.539062 1130.988281 1123.75 Z M 1075.632812 1190.261719 C 1070.371094 1191.246094 1067.660156 1185.402344 1067.660156 1185.402344 C 1067.660156 1185.402344 1073.960938 1176.253906 1079.5625 1174.402344 C 1082.542969 1173.417969 1084.773438 1174.777344 1086.226562 1176.292969 C 1091.554688 1166.628906 1100.796875 1150.480469 1110.949219 1136.953125 C 1128.34375 1113.746094 1135.515625 1115.015625 1136.277344 1117.167969 C 1137.042969 1119.332031 1138.9375 1139.558594 1118.140625 1164.085938 C 1107.226562 1176.980469 1095.015625 1181.890625 1087.910156 1183.902344 C 1087.519531 1187.101562 1086.5625 1191.339844 1084.214844 1195.097656 C 1079.757812 1202.25 1071.964844 1204.878906 1071.964844 1204.878906 C 1071.964844 1204.878906 1071.707031 1197.195312 1075.632812 1190.261719 "/>
<path style=" stroke:none;fill-rule:nonzero;fill:rgb(15.689087%,34.118652%,43.139648%);fill-opacity:1;" d="M 1052.945312 1085.25 C 1050.847656 1084.5 1048.992188 1081.726562 1048.03125 1077.269531 C 1047.175781 1073.332031 1047.175781 1068.832031 1047.851562 1064.699219 C 1046.152344 1069.363281 1045.492188 1075.027344 1046.453125 1079.5 C 1047.488281 1084.320312 1050.132812 1086.40625 1052.945312 1085.25 Z M 1055.007812 1066.191406 C 1055.605469 1065.398438 1055.929688 1064.050781 1055.734375 1063.183594 C 1055.550781 1062.316406 1054.902344 1062.265625 1054.308594 1063.054688 C 1053.722656 1063.84375 1053.398438 1065.179688 1053.582031 1066.046875 C 1053.777344 1066.902344 1054.410156 1066.980469 1055.007812 1066.191406 Z M 991.78125 1135.503906 C 986.167969 1136.902344 982.875 1131.058594 982.875 1131.058594 C 982.875 1131.058594 989.34375 1120.613281 995.503906 1118.308594 C 998.769531 1117.078125 1001.273438 1118.476562 1002.878906 1120.058594 C 1008.558594 1109.5625 1018.96875 1092.160156 1031.296875 1078.359375 C 1052.414062 1054.695312 1061.101562 1057.535156 1061.695312 1059.878906 C 1062.292969 1062.265625 1061.359375 1083.449219 1037.726562 1108.082031 C 1025.308594 1121.027344 1012.40625 1125.941406 1004.796875 1128.195312 C 1004.433594 1131.613281 1003.460938 1136.164062 1001.089844 1140.230469 C 996.539062 1148.007812 988.578125 1151.285156 988.578125 1151.285156 C 988.578125 1151.285156 987.839844 1143.148438 991.78125 1135.503906 "/>
<path style=" stroke:none;fill-rule:nonzero;fill:rgb(15.689087%,34.118652%,43.139648%);fill-opacity:1;" d="M 1077.550781 985.28125 C 1076.074219 984.800781 1074.453125 981.988281 1073.171875 977.15625 C 1072.042969 972.90625 1071.382812 967.90625 1071.160156 963.1875 C 1070.824219 968.667969 1071.199219 975.082031 1072.46875 979.917969 C 1073.832031 985.136719 1075.90625 987.070312 1077.550781 985.28125 Z M 1075.738281 963.5 C 1075.957031 962.5 1075.90625 960.921875 1075.644531 959.988281 C 1075.386719 959.054688 1075 959.117188 1074.789062 960.128906 C 1074.582031 961.113281 1074.609375 962.683594 1074.867188 963.617188 C 1075.128906 964.535156 1075.515625 964.496094 1075.738281 963.5 Z M 1033.550781 1047.789062 C 1028.457031 1049.460938 1025.320312 1042.582031 1025.320312 1042.582031 C 1025.320312 1042.582031 1031.101562 1030.710938 1036.402344 1028.003906 C 1039.230469 1026.550781 1041.421875 1028.054688 1042.875 1029.792969 C 1047.28125 1017.625 1054.789062 997.644531 1061.957031 980.835938 C 1074.234375 952.019531 1077.628906 952.484375 1078.40625 955.023438 C 1079.183594 957.5625 1084.800781 982.429688 1069.957031 1013.296875 C 1062.152344 1029.507812 1051.417969 1036.078125 1044.910156 1039.019531 C 1044.726562 1042.957031 1044.078125 1048.242188 1042.070312 1053.0625 C 1038.230469 1062.265625 1030.738281 1066.28125 1030.738281 1066.28125 C 1030.738281 1066.28125 1030.089844 1056.707031 1033.550781 1047.789062 "/>
<path style=" stroke:none;fill-rule:nonzero;fill:rgb(15.689087%,34.118652%,43.139648%);fill-opacity:1;" d="M 1156.582031 1016.171875 C 1155.804688 1015.070312 1153.3125 1011.210938 1149.582031 1004.976562 C 1146.300781 999.496094 1142.65625 993.199219 1139.246094 987.496094 C 1143.035156 993.820312 1147.453125 1001.777344 1151.160156 1008.007812 C 1155.167969 1014.746094 1157.292969 1017.597656 1156.582031 1016.171875 Z M 1140.53125 990.492188 C 1139.804688 989.503906 1138.601562 987.742188 1137.847656 986.523438 C 1137.097656 985.308594 1137.109375 985.113281 1137.835938 986.097656 C 1138.5625 987.082031 1139.726562 988.871094 1140.464844 990.089844 C 1141.207031 991.292969 1141.246094 991.460938 1140.53125 990.492188 Z M 1156.011719 1101.851562 C 1151.769531 1105.90625 1147.15625 1098.25 1147.15625 1098.25 C 1147.15625 1098.25 1149.257812 1080.832031 1152.484375 1075.105469 C 1154.195312 1072.074219 1156.347656 1073.136719 1158.109375 1074.847656 C 1156.867188 1056.953125 1152.511719 1027.109375 1146.535156 1006.558594 C 1136.292969 971.300781 1131.859375 980.085938 1133.878906 983.390625 C 1135.917969 986.695312 1162.660156 1010.976562 1169.972656 1048.230469 C 1173.808594 1067.808594 1167.339844 1079.746094 1163.113281 1086.132812 C 1164.410156 1091.34375 1165.734375 1098.402344 1165.34375 1105.257812 C 1164.644531 1118.386719 1157.632812 1126.003906 1157.632812 1126.003906 C 1157.632812 1126.003906 1155.207031 1114.472656 1156.011719 1101.851562 "/>
<path style=" stroke:none;fill-rule:nonzero;fill:rgb(15.689087%,34.118652%,43.139648%);fill-opacity:1;" d="M 1194.292969 1092.082031 C 1192.582031 1091.496094 1189.792969 1088.324219 1186.605469 1082.777344 C 1183.804688 1077.890625 1181.199219 1072.085938 1179.074219 1066.695312 C 1180.925781 1072.851562 1183.726562 1080.289062 1186.878906 1085.835938 C 1190.261719 1091.835938 1193.257812 1093.960938 1194.292969 1092.082031 Z M 1183.78125 1068.070312 C 1183.558594 1067.03125 1182.820312 1065.308594 1182.171875 1064.234375 C 1181.523438 1063.160156 1181.199219 1063.105469 1181.421875 1064.144531 C 1181.652344 1065.179688 1182.339844 1066.902344 1182.976562 1067.980469 C 1183.609375 1069.054688 1183.988281 1069.09375 1183.78125 1068.070312 Z M 1154.765625 1174.597656 C 1148.191406 1177.953125 1143.863281 1171.070312 1143.863281 1171.070312 C 1143.863281 1171.070312 1150.527344 1156.171875 1156.8125 1151.464844 C 1160.171875 1148.953125 1163.035156 1149.988281 1165.085938 1151.492188 C 1169.089844 1136.214844 1174.484375 1109.960938 1175.496094 1086.898438 C 1177.246094 1047.335938 1180.511719 1057.09375 1182.351562 1060.007812 C 1184.179688 1062.9375 1203.019531 1084.5 1194.722656 1123.957031 C 1190.363281 1144.675781 1176.84375 1155.820312 1168.78125 1161.25 C 1169.011719 1165.71875 1168.726562 1171.796875 1166.445312 1177.71875 C 1162.066406 1189.042969 1151.796875 1195.601562 1151.796875 1195.601562 C 1151.796875 1195.601562 1150.773438 1185.480469 1154.765625 1174.597656 "/>
<path style=" stroke:none;fill-rule:nonzero;fill:rgb(29.798889%,66.668701%,81.568909%);fill-opacity:1;" d="M 886.667969 760.8125 C 887.863281 757.015625 886.382812 750.507812 882.09375 742.515625 C 878.308594 735.476562 873.058594 728.597656 867.574219 723.15625 C 874.703125 728.132812 881.925781 736.113281 886.214844 744.109375 C 890.855469 752.738281 890.804688 759.035156 886.667969 760.8125 Z M 862.0625 734.636719 C 860.507812 734.261719 858.5625 732.691406 857.734375 731.136719 C 856.902344 729.582031 857.511719 728.609375 859.054688 728.984375 C 860.613281 729.363281 862.53125 730.941406 863.359375 732.496094 C 864.175781 734.039062 863.605469 735 862.0625 734.636719 Z M 1008.21875 799.476562 C 1013.792969 800.046875 1007.882812 788.617188 1007.882812 788.617188 C 1007.882812 788.617188 991.171875 772.238281 983.523438 770.699219 C 979.453125 769.882812 979.039062 773.367188 979.609375 776.789062 C 955.042969 756.25 927.207031 738.964844 898.777344 726.730469 C 855.359375 708.058594 845.015625 731.488281 847.414062 735 C 862.503906 757.066406 898.90625 770.269531 927.335938 779.859375 C 952.875 788.488281 978.324219 791.121094 988.347656 791.691406 C 993.15625 797.457031 1000.039062 804.957031 1007.378906 811.269531 C 1021.378906 823.292969 1030.648438 827.027344 1030.648438 827.027344 C 1030.648438 827.027344 1020.730469 811.761719 1008.21875 799.476562 "/>
<path style=" stroke:none;fill-rule:nonzero;fill:rgb(29.798889%,66.668701%,81.568909%);fill-opacity:1;" d="M 248.410156 929.445312 C 250.210938 919.816406 248.707031 907.132812 243.601562 894.484375 C 239.128906 883.355469 232.722656 874.375 226.007812 868.816406 C 234.851562 871.40625 243.796875 880.359375 248.902344 893.019531 C 254.425781 906.691406 253.894531 920.867188 248.410156 929.445312 Z M 218.515625 900.03125 C 216.582031 900.925781 214.222656 899.640625 213.265625 897.207031 C 212.304688 894.757812 213.097656 892.050781 215.003906 891.179688 C 216.921875 890.3125 219.265625 891.582031 220.238281 894.03125 C 221.199219 896.453125 220.421875 899.175781 218.515625 900.03125 Z M 402.320312 831.753906 C 411.160156 817.554688 404.953125 794.617188 404.953125 794.617188 C 404.953125 794.617188 380.902344 791.183594 370.234375 805.050781 C 364.542969 812.421875 363.804688 823.253906 364.375 831.792969 C 332.289062 824.277344 298.035156 823.515625 266.976562 835.617188 C 235.316406 847.964844 191.914062 891.609375 200.46875 915.800781 C 209.386719 940.976562 272.679688 934.695312 302.042969 920.878906 C 331.976562 906.796875 356.464844 883.210938 374.941406 855.972656 C 380.839844 862.441406 389.34375 869.605469 398.960938 871.355469 C 417.304688 874.699219 432.707031 857.542969 432.707031 857.542969 C 432.707031 857.542969 419.5625 836.746094 402.320312 831.753906 "/>
<path style=" stroke:none;fill-rule:nonzero;fill:rgb(29.798889%,66.668701%,81.568909%);fill-opacity:1;" d="M 423.398438 1069.300781 C 425.472656 1060.425781 424.269531 1048.980469 419.328125 1037.632812 C 414.972656 1027.652344 408.582031 1019.644531 401.789062 1014.839844 C 410.757812 1016.703125 419.742188 1024.542969 424.695312 1035.882812 C 430.050781 1048.140625 429.15625 1061.058594 423.398438 1069.300781 Z M 393.738281 1044.679688 C 391.765625 1045.652344 389.40625 1044.617188 388.460938 1042.414062 C 387.515625 1040.195312 388.355469 1037.59375 390.328125 1036.644531 C 392.285156 1035.699219 394.65625 1036.722656 395.605469 1038.941406 C 396.539062 1041.144531 395.695312 1043.722656 393.738281 1044.679688 Z M 578.460938 969.097656 C 587.25 955.570312 581.132812 934.589844 581.132812 934.589844 C 581.132812 934.589844 557.449219 932.566406 546.894531 946.148438 C 541.28125 953.378906 540.53125 963.550781 541.035156 971.417969 C 508.378906 966.257812 474.28125 967.75 443.546875 980.8125 C 412.910156 993.832031 366.679688 1039.03125 375.070312 1060.734375 C 383.691406 1083.035156 449.871094 1070.816406 477.472656 1057.042969 C 506.902344 1042.347656 532.050781 1019.644531 551.238281 992.914062 C 556.96875 998.40625 565.210938 1004.25 574.613281 1005.132812 C 592.554688 1006.816406 607.863281 990.476562 607.863281 990.476562 C 607.863281 990.476562 595.339844 972.621094 578.460938 969.097656 "/>
<path style=" stroke:none;fill-rule:nonzero;fill:rgb(29.798889%,66.668701%,81.568909%);fill-opacity:1;" d="M 170.753906 1092.261719 C 172.390625 1082.078125 170.820312 1068.808594 165.75 1055.679688 C 161.277344 1044.136719 154.953125 1034.871094 148.378906 1029.273438 C 156.9375 1031.578125 165.726562 1040.675781 170.820312 1053.816406 C 176.316406 1068.03125 175.929688 1082.957031 170.753906 1092.261719 Z M 141.730469 1062.976562 C 139.902344 1064.011719 137.644531 1062.796875 136.671875 1060.242188 C 135.714844 1057.703125 136.414062 1054.789062 138.230469 1053.765625 C 140.042969 1052.738281 142.324219 1053.957031 143.285156 1056.496094 C 144.246094 1059.050781 143.542969 1061.941406 141.730469 1062.976562 Z M 320.128906 976.976562 C 328.828125 960.765625 322.449219 936.015625 322.449219 936.015625 C 322.449219 936.015625 298.53125 934.316406 288.132812 950.410156 C 282.597656 958.988281 282 970.910156 282.648438 980.136719 C 250.601562 974.433594 216.6875 976.210938 187.375 991.097656 C 154.617188 1007.738281 116.242188 1054.957031 124.757812 1080.601562 C 133.289062 1106.269531 195.554688 1095.59375 222.328125 1079.859375 C 252.273438 1062.277344 275.75 1035.285156 293.203125 1005.46875 C 299.0625 1011.960938 307.421875 1018.945312 316.898438 1020.019531 C 334.984375 1022.054688 350.28125 1002.242188 350.28125 1002.242188 C 350.28125 1002.242188 337.226562 980.941406 320.128906 976.976562 "/>
<path style=" stroke:none;fill-rule:nonzero;fill:rgb(29.798889%,66.668701%,81.568909%);fill-opacity:1;" d="M 772.84375 1001.480469 C 774.738281 995.128906 773.609375 986.746094 769.046875 978.089844 C 765.027344 970.484375 759.140625 964.109375 752.855469 960.039062 C 761.136719 962.097656 769.398438 968.578125 773.960938 977.222656 C 778.898438 986.550781 778.132812 995.828125 772.84375 1001.480469 Z M 745.425781 981.550781 C 743.597656 982.144531 741.382812 981.238281 740.5 979.539062 C 739.632812 977.84375 740.410156 975.964844 742.25 975.382812 C 744.078125 974.796875 746.28125 975.730469 747.148438 977.429688 C 748.019531 979.113281 747.242188 980.964844 745.425781 981.550781 Z M 906.476562 947.429688 C 913.296875 939.707031 907.621094 924.769531 907.621094 924.769531 C 907.621094 924.769531 888.1875 919.414062 879.707031 927.113281 C 875.195312 931.21875 874.808594 938.128906 875.417969 943.59375 C 846.15625 934.964844 818.828125 934.175781 790.65625 938.800781 C 766.234375 942.804688 721.726562 978.101562 727.898438 992.40625 C 734.859375 1008.539062 793.222656 1005.121094 821.679688 996.488281 C 853.210938 986.925781 874.003906 970.316406 884.492188 959.664062 C 889.445312 964.160156 896.496094 969.1875 904.300781 971.066406 C 919.195312 974.628906 931.046875 966.179688 931.046875 966.179688 C 931.046875 966.179688 920.441406 952.382812 906.476562 947.429688 "/>
<path style=" stroke:none;fill-rule:nonzero;fill:rgb(29.798889%,66.668701%,81.568909%);fill-opacity:1;" d="M 672.359375 1147.617188 C 675.109375 1141.230469 674.941406 1133.417969 671.117188 1125.902344 C 667.757812 1119.265625 662.234375 1114.136719 656.066406 1111.324219 C 664.503906 1111.726562 672.515625 1116.492188 676.339844 1124.007812 C 680.476562 1132.132812 678.53125 1141.179688 672.359375 1147.617188 Z M 646.226562 1134.0625 C 644.253906 1135.011719 642.0625 1134.582031 641.335938 1133.09375 C 640.597656 1131.601562 641.597656 1129.59375 643.554688 1128.660156 C 645.5 1127.726562 647.691406 1128.207031 648.417969 1129.699219 C 649.140625 1131.175781 648.15625 1133.144531 646.226562 1134.0625 Z M 822.703125 1062.769531 C 831.324219 1052.84375 826.710938 1038.316406 826.710938 1038.316406 C 826.710938 1038.316406 805.515625 1038.046875 795.3125 1048.503906 C 789.878906 1054.074219 788.699219 1061.449219 788.738281 1066.96875 C 756.148438 1065.503906 726.746094 1071.347656 697.808594 1081.894531 C 669.921875 1092.054688 622.292969 1137.136719 627.011719 1148.03125 C 632.316406 1160.304688 698.535156 1144.519531 724.140625 1132.300781 C 750.15625 1119.863281 775.28125 1103.328125 796.75 1081.183594 C 801.613281 1084.488281 808.691406 1087.714844 817.078125 1087.53125 C 833.089844 1087.167969 847.75 1075.285156 847.75 1075.285156 C 847.75 1075.285156 837.679688 1064.117188 822.703125 1062.769531 "/>
<path style=" stroke:none;fill-rule:nonzero;fill:rgb(29.798889%,66.668701%,81.568909%);fill-opacity:1;" d="M 444.128906 1189.523438 C 446.65625 1181.320312 446.113281 1171.085938 441.808594 1161.183594 C 438.023438 1152.464844 432.058594 1145.660156 425.578125 1141.8125 C 434.316406 1142.695312 442.832031 1149.132812 447.136719 1159.035156 C 451.804688 1169.722656 450.234375 1181.492188 444.128906 1189.523438 Z M 416.398438 1170.269531 C 414.414062 1171.355469 412.160156 1170.65625 411.328125 1168.714844 C 410.511719 1166.769531 411.433594 1164.308594 413.402344 1163.21875 C 415.386719 1162.132812 417.65625 1162.871094 418.472656 1164.8125 C 419.277344 1166.742188 418.355469 1169.179688 416.398438 1170.269531 Z M 601.65625 1081.417969 C 610.964844 1067.925781 605.726562 1048.722656 605.726562 1048.722656 C 605.726562 1048.722656 582.339844 1049.152344 571.398438 1063.054688 C 565.5625 1070.464844 564.421875 1080.121094 564.589844 1087.414062 C 531.480469 1085.914062 497.878906 1090.980469 467.984375 1105.855469 C 438.371094 1120.589844 389.859375 1168.117188 397.367188 1186.90625 C 404.820312 1205.566406 472.960938 1186.21875 497.683594 1172.496094 C 527.152344 1156.132812 553.144531 1133.183594 573.640625 1106.308594 C 579.019531 1110.738281 586.835938 1115.171875 596.027344 1114.9375 C 613.582031 1114.496094 629.605469 1097.949219 629.605469 1097.949219 C 629.605469 1097.949219 618.171875 1082.945312 601.65625 1081.417969 "/>
<path style=" stroke:none;fill-rule:nonzero;fill:rgb(29.798889%,66.668701%,81.568909%);fill-opacity:1;" d="M 655.726562 954 C 657.621094 946.667969 656.273438 936.894531 651.347656 926.90625 C 647.003906 918.09375 640.691406 910.761719 634.050781 906.070312 C 642.789062 908.503906 651.566406 915.957031 656.503906 925.960938 C 661.847656 936.765625 661.210938 947.546875 655.726562 954 Z M 626.507812 930.441406 C 624.601562 931.078125 622.28125 930.015625 621.335938 928.058594 C 620.386719 926.101562 621.179688 923.976562 623.085938 923.355469 C 625.003906 922.734375 627.324219 923.808594 628.269531 925.753906 C 629.203125 927.695312 628.414062 929.808594 626.507812 930.441406 Z M 798.863281 890.402344 C 806.382812 881.058594 800.289062 863.75 800.289062 863.75 C 800.289062 863.75 778.9375 858.359375 769.644531 867.546875 C 764.691406 872.429688 764.222656 880.453125 764.886719 886.800781 C 733.355469 877.511719 703.902344 876.71875 673.851562 882.1875 C 646.109375 887.226562 601.679688 925.582031 608.332031 942.457031 C 615.628906 960.984375 678.828125 960.167969 707.480469 949.023438 C 732.851562 939.164062 755.421875 926.929688 774.777344 905.449219 C 780.195312 910.65625 787.894531 916.472656 796.453125 918.523438 C 812.789062 922.410156 825.894531 911.796875 825.894531 911.796875 C 825.894531 911.796875 814.160156 895.753906 798.863281 890.402344 "/>
<path style=" stroke:none;fill-rule:nonzero;fill:rgb(29.798889%,66.668701%,81.568909%);fill-opacity:1;" d="M 478.445312 906.082031 C 480.351562 897.660156 478.886719 886.425781 473.75 875.0625 C 469.214844 865.042969 462.691406 856.816406 455.847656 851.582031 C 464.871094 854.261719 473.957031 862.582031 479.117188 873.960938 C 484.691406 886.257812 484.082031 898.683594 478.445312 906.082031 Z M 448.070312 879.117188 C 446.097656 879.84375 443.6875 878.625 442.714844 876.410156 C 441.742188 874.191406 442.546875 871.808594 444.519531 871.109375 C 446.5 870.382812 448.886719 871.613281 449.859375 873.828125 C 450.84375 876.03125 450.027344 878.402344 448.070312 879.117188 Z M 630.695312 829.164062 C 639.054688 817.761719 632.769531 797.792969 632.769531 797.792969 C 632.769531 797.792969 609.5625 792.882812 599.347656 803.988281 C 593.914062 809.894531 593.292969 819.171875 593.914062 826.546875 C 562.542969 817.929688 529.003906 815.054688 497.359375 824.070312 C 465.6875 833.101562 422.257812 872.066406 429.414062 892.644531 C 437.050781 914.609375 504.21875 912.652344 532.570312 900.328125 C 560.15625 888.355469 584.179688 873.011719 604.378906 847.941406 C 610.171875 853.835938 618.46875 860.445312 627.765625 862.53125 C 645.5 866.507812 660.042969 853.125 660.042969 853.125 C 660.042969 853.125 647.3125 834.644531 630.695312 829.164062 "/>
<path style=" stroke:none;fill-rule:nonzero;fill:rgb(29.798889%,66.668701%,81.568909%);fill-opacity:1;" d="M 820.097656 849.144531 C 821.523438 843.613281 819.957031 835.550781 815.210938 826.625 C 811.050781 818.757812 805.203125 811.695312 799.097656 806.667969 C 807.03125 810.363281 815.070312 818.019531 819.8125 826.933594 C 824.933594 836.574219 824.777344 845.050781 820.097656 849.144531 Z M 792.964844 824.484375 C 791.265625 824.617188 789.113281 823.320312 788.195312 821.570312 C 787.285156 819.820312 787.949219 818.292969 789.660156 818.164062 C 791.382812 818.03125 793.507812 819.355469 794.417969 821.089844 C 795.324219 822.839844 794.664062 824.34375 792.964844 824.484375 Z M 940.78125 835.460938 C 946.539062 831.042969 940.832031 817.085938 940.832031 817.085938 C 940.832031 817.085938 923.125 806.550781 915.707031 810.425781 C 911.742188 812.5 911.664062 818.1875 912.453125 823.007812 C 888.339844 808.9375 861.492188 798.066406 833.90625 796.71875 C 783.941406 794.28125 774.128906 826.972656 776.773438 830.679688 C 792.253906 852.382812 835.550781 857.191406 865.808594 856.117188 C 894.824219 855.078125 912.570312 845.738281 921.53125 839.453125 C 926.289062 844.792969 933.003906 851.246094 940.171875 855.183594 C 953.863281 862.726562 963.84375 859.109375 963.84375 859.109375 C 963.84375 859.109375 953.589844 843.921875 940.78125 835.460938 "/>
<path style=" stroke:none;fill-rule:nonzero;fill:rgb(29.798889%,66.668701%,81.568909%);fill-opacity:1;" d="M 656.714844 742.253906 C 658.449219 735.996094 657.039062 726.992188 652.1875 717.273438 C 647.9375 708.707031 641.832031 701.191406 635.386719 695.929688 C 643.90625 699.648438 652.410156 707.710938 657.257812 717.425781 C 662.507812 727.9375 661.988281 737.5 656.714844 742.253906 Z M 627.894531 715.679688 C 626.015625 715.886719 623.734375 714.523438 622.8125 712.632812 C 621.890625 710.753906 622.667969 709.042969 624.5625 708.847656 C 626.429688 708.65625 628.699219 710.027344 629.617188 711.90625 C 630.539062 713.800781 629.761719 715.484375 627.894531 715.679688 Z M 795.585938 718.035156 C 802.871094 712.128906 797.21875 696.628906 797.21875 696.628906 C 797.21875 696.628906 776.683594 686.859375 767.554688 692.109375 C 762.695312 694.894531 762.175781 701.371094 762.757812 706.828125 C 733.757812 692.367188 705.121094 685.277344 674.460938 683.375 C 651.878906 681.960938 603.675781 706.4375 610.042969 722.972656 C 617.652344 742.695312 674.617188 750.988281 707.351562 748.292969 C 740.019531 745.597656 761.320312 733.09375 772.3125 724.890625 C 777.5625 730.605469 785.082031 737.488281 793.378906 741.347656 C 809.222656 748.707031 821.734375 742.96875 821.734375 742.96875 C 821.734375 742.96875 810.351562 726.304688 795.585938 718.035156 "/>
<path style=" stroke:none;fill-rule:nonzero;fill:rgb(29.798889%,66.668701%,81.568909%);fill-opacity:1;" d="M 501.390625 691.214844 C 503.425781 684.292969 502.246094 674.589844 497.566406 664.46875 C 493.429688 655.539062 487.351562 647.960938 480.855469 642.839844 C 489.582031 646.160156 498.136719 654.140625 502.84375 664.289062 C 507.9375 675.238281 507.082031 685.679688 501.390625 691.214844 Z M 472.273438 664.46875 C 470.328125 664.820312 467.996094 663.507812 467.113281 661.554688 C 466.230469 659.597656 467.113281 657.730469 469.070312 657.394531 C 471.027344 657.042969 473.324219 658.367188 474.21875 660.308594 C 475.101562 662.253906 474.21875 664.132812 472.273438 664.46875 Z M 651.476562 651.550781 C 659.875 643.980469 654.523438 627.332031 654.523438 627.332031 C 654.523438 627.332031 632.339844 619.269531 622.046875 626.164062 C 616.5625 629.832031 615.628906 637.050781 615.992188 643.023438 C 586.433594 631.050781 554.257812 623.742188 522.417969 626.242188 C 496.414062 628.277344 447.433594 655.566406 453.539062 673.421875 C 460.578125 694.011719 522.457031 699.222656 554.570312 694.167969 C 589.417969 688.675781 613.113281 672.464844 625.523438 662.046875 C 631.003906 667.835938 638.914062 674.746094 647.882812 678.125 C 664.996094 684.578125 679.285156 676.363281 679.285156 676.363281 C 679.285156 676.363281 667.394531 658.960938 651.476562 651.550781 "/>
<path style=" stroke:none;fill-rule:nonzero;fill:rgb(29.798889%,66.668701%,81.568909%);fill-opacity:1;" d="M 578.914062 602.515625 C 581.066406 597.191406 580.210938 589.300781 576.011719 580.683594 C 572.304688 573.089844 566.714844 566.378906 560.625 561.570312 C 568.921875 565.25 576.894531 572.570312 581.105469 581.199219 C 585.671875 590.519531 584.554688 598.773438 578.914062 602.515625 Z M 551.585938 577.613281 C 549.667969 577.652344 547.492188 576.339844 546.6875 574.683594 C 545.894531 573.023438 546.816406 571.636719 548.734375 571.597656 C 550.628906 571.574219 552.804688 572.882812 553.597656 574.527344 C 554.386719 576.1875 553.480469 577.558594 551.585938 577.613281 Z M 723.4375 594.378906 C 731.59375 590.257812 727.082031 576.898438 727.082031 576.898438 C 727.082031 576.898438 706.367188 566.585938 696.371094 569.875 C 691.027344 571.625 689.902344 576.886719 690.082031 581.5 C 662.40625 567.296875 632.082031 556.851562 601.238281 554.117188 C 576.230469 551.902344 530.234375 570.367188 533.140625 582.601562 C 536.886719 598.292969 597.375 611.46875 630.03125 611.871094 C 663.621094 612.300781 686.492188 603.539062 698.5625 597.683594 C 703.605469 603.085938 710.929688 609.773438 719.328125 613.996094 C 735.367188 622.058594 749.003906 618.546875 749.003906 618.546875 C 749.003906 618.546875 738.257812 602.984375 723.4375 594.378906 "/>
<path style=" stroke:none;fill-rule:nonzero;fill:rgb(29.798889%,66.668701%,81.568909%);fill-opacity:1;" d="M 747.472656 551.761719 C 749.601562 549.335938 749.160156 544.53125 745.777344 538.335938 C 742.808594 532.878906 738.128906 527.359375 732.914062 522.785156 C 740.148438 527.425781 746.917969 534.074219 750.3125 540.28125 C 753.96875 546.992188 752.648438 551.347656 747.472656 551.761719 Z M 724.074219 529.019531 C 722.351562 528.460938 720.445312 527.0625 719.796875 525.871094 C 719.160156 524.691406 720.054688 524.1875 721.765625 524.742188 C 723.476562 525.289062 725.371094 526.699219 726.007812 527.878906 C 726.640625 529.058594 725.773438 529.5625 724.074219 529.019531 Z M 874.652344 603.851562 C 881.652344 605.871094 877.515625 597.332031 877.515625 597.332031 C 877.515625 597.332031 860.15625 582.09375 851.574219 579.023438 C 847.011719 577.390625 845.898438 579.464844 845.882812 581.824219 C 821.914062 562.050781 796.308594 545.371094 769.410156 532.375 C 720.832031 508.910156 705.417969 523.980469 707.234375 526.480469 C 723.074219 548.261719 763.003906 562.074219 792.304688 574.074219 C 821.824219 586.175781 841.800781 591.203125 852.808594 593.71875 C 857.085938 598.71875 863.425781 605.433594 870.800781 611.535156 C 884.90625 623.171875 896.714844 628.523438 896.714844 628.523438 C 896.714844 628.523438 887.382812 615.332031 874.652344 603.851562 "/>
<path style=" stroke:none;fill-rule:nonzero;fill:rgb(29.798889%,66.668701%,81.568909%);fill-opacity:1;" d="M 145.527344 777.851562 C 147.539062 768.78125 146.449219 756.78125 142 744.925781 C 138.085938 734.507812 132.316406 726.175781 126.132812 721.054688 C 134.46875 723.503906 142.675781 731.8125 147.148438 743.695312 C 151.984375 756.507812 151.0625 769.894531 145.527344 777.851562 Z M 117.640625 749.652344 C 115.75 750.429688 113.546875 749.214844 112.730469 746.945312 C 111.898438 744.664062 112.753906 742.191406 114.621094 741.414062 C 116.5 740.636719 118.691406 741.851562 119.523438 744.121094 C 120.339844 746.375 119.496094 748.863281 117.640625 749.652344 Z M 298.777344 690.5 C 308.007812 677.515625 302.988281 656.292969 302.988281 656.292969 C 302.988281 656.292969 279.628906 652.664062 268.53125 665.066406 C 262.632812 671.6875 261.414062 681.585938 261.621094 689.492188 C 230.609375 681.753906 197.527344 680.652344 167.035156 691.304688 C 136.972656 701.789062 92.335938 741.398438 99.738281 763.984375 C 107.492188 787.632812 169.175781 783.488281 197.851562 771.460938 C 227.238281 759.125 251.820312 737.550781 271.007812 712.320312 C 276.582031 718.59375 284.710938 725.695312 294.121094 727.742188 C 312.078125 731.628906 327.816406 715.871094 327.816406 715.871094 C 327.816406 715.871094 315.5 695.671875 298.777344 690.5 "/>
<path style=" stroke:none;fill-rule:nonzero;fill:rgb(29.798889%,66.668701%,81.568909%);fill-opacity:1;" d="M 903.121094 1054.449219 C 905.089844 1049.65625 904.378906 1043.382812 900.515625 1036.855469 C 897.117188 1031.101562 891.945312 1026.226562 886.320312 1023.144531 C 893.824219 1024.609375 901.136719 1029.53125 905 1036.0625 C 909.175781 1043.125 908.125 1050.097656 903.121094 1054.449219 Z M 878.902344 1040.066406 C 877.207031 1040.574219 875.222656 1039.9375 874.484375 1038.640625 C 873.730469 1037.347656 874.507812 1035.855469 876.207031 1035.363281 C 877.894531 1034.871094 879.875 1035.53125 880.628906 1036.828125 C 881.367188 1038.109375 880.589844 1039.5625 878.902344 1040.066406 Z M 1022.261719 1015.617188 C 1028.082031 1010.355469 1023.179688 998.9375 1023.179688 998.9375 C 1023.179688 998.9375 1006.714844 993.664062 999.429688 999.105469 C 995.554688 1001.996094 995.164062 1007.207031 995.65625 1011.328125 C 978.84375 1006.402344 949.90625 999.988281 920.972656 1006.167969 C 871.359375 1016.757812 860.429688 1046.675781 862.476562 1048.996094 C 876.558594 1064.921875 923.019531 1056.136719 947.222656 1049.8125 C 975.601562 1042.386719 994.140625 1030.984375 1003.332031 1023.570312 C 1007.546875 1027.03125 1013.546875 1030.917969 1020.199219 1032.605469 C 1032.917969 1035.792969 1042.9375 1030.609375 1042.9375 1030.609375 C 1042.9375 1030.609375 1034.097656 1020.035156 1022.261719 1015.617188 "/>
<path style=" stroke:none;fill-rule:nonzero;fill:rgb(29.798889%,66.668701%,81.568909%);fill-opacity:1;" d="M 1081.609375 919.195312 C 1082.347656 917.289062 1080.519531 912.5625 1076.292969 905.601562 C 1072.574219 899.5 1067.710938 892.828125 1062.707031 887.007812 C 1068.996094 893.148438 1075.453125 901.390625 1079.679688 908.335938 C 1084.230469 915.839844 1084.953125 919.765625 1081.609375 919.195312 Z M 1058.753906 892.582031 C 1057.328125 891.765625 1055.488281 890 1054.683594 888.652344 C 1053.867188 887.292969 1054.386719 886.867188 1055.8125 887.707031 C 1057.222656 888.523438 1059 890.3125 1059.804688 891.648438 C 1060.621094 892.996094 1060.152344 893.410156 1058.753906 892.582031 Z M 1133.363281 993.523438 C 1132.363281 996.632812 1126.957031 987.277344 1126.957031 987.277344 C 1126.957031 987.277344 1121.785156 968.953125 1121.472656 964.640625 C 1121.304688 962.332031 1122.898438 964.457031 1124.535156 966.917969 C 1117.078125 949.441406 1102.882812 921.140625 1085.175781 902.453125 C 1054.8125 870.421875 1042.523438 884.519531 1044.738281 887.566406 C 1060.816406 909.542969 1092.136719 927.074219 1113.152344 948.984375 C 1129.695312 966.246094 1131.496094 975.640625 1131.597656 979.996094 C 1134.296875 985.578125 1137.742188 993.070312 1140.117188 1000.078125 C 1144.613281 1013.453125 1143.058594 1020.515625 1143.058594 1020.515625 C 1143.058594 1020.515625 1137.523438 1006.832031 1133.363281 993.523438 "/>
<path style=" stroke:none;fill-rule:nonzero;fill:rgb(29.798889%,66.668701%,81.568909%);fill-opacity:1;" d="M 1058.210938 1000.234375 C 1059 997.175781 1057.585938 992.148438 1053.878906 985.929688 C 1050.613281 980.460938 1046.179688 975.109375 1041.628906 970.960938 C 1047.398438 974.539062 1053.375 980.679688 1057.082031 986.886719 C 1061.085938 993.585938 1061.335938 998.523438 1058.210938 1000.234375 Z M 1038.050781 981.277344 C 1036.804688 981.121094 1035.210938 980.007812 1034.5 978.789062 C 1033.773438 977.558594 1034.1875 976.691406 1035.40625 976.84375 C 1036.652344 977 1038.21875 978.128906 1038.945312 979.347656 C 1039.671875 980.578125 1039.257812 981.433594 1038.050781 981.277344 Z M 1170.777344 1039.550781 C 1172.382812 1040.714844 1166.019531 1031.28125 1166.019531 1031.28125 C 1166.019531 1031.28125 1156.347656 1016.769531 1152.769531 1014.941406 C 1150.863281 1013.984375 1151.5 1016.691406 1152.601562 1019.359375 C 1131.429688 997.527344 1107.484375 983.90625 1080.832031 974.203125 C 1026.785156 954.507812 1024.4375 980.460938 1026.472656 983.089844 C 1042.003906 1003.175781 1080.144531 1008.710938 1107.316406 1015.914062 C 1142.140625 1025.164062 1155.324219 1029.777344 1160.601562 1031.359375 C 1164.386719 1036.101562 1169.597656 1042.269531 1174.355469 1047.699219 C 1183.417969 1058.078125 1186.046875 1062.472656 1186.046875 1062.472656 C 1186.046875 1062.472656 1178.554688 1050.214844 1170.777344 1039.550781 "/>
<path style=" stroke:none;fill-rule:nonzero;fill:rgb(29.798889%,66.668701%,81.568909%);fill-opacity:1;" d="M 819.320312 651.691406 C 820.914062 648.476562 819.828125 642.582031 815.847656 635.132812 C 812.332031 628.574219 807.226562 622.042969 801.78125 616.746094 C 809.054688 621.851562 816.210938 629.558594 820.191406 637.011719 C 824.507812 645.058594 823.9375 650.605469 819.320312 651.691406 Z M 794.792969 625.917969 C 793.160156 625.425781 791.1875 623.84375 790.4375 622.40625 C 789.671875 620.96875 790.386719 620.203125 792.03125 620.710938 C 793.679688 621.214844 795.621094 622.796875 796.386719 624.234375 C 797.140625 625.660156 796.425781 626.410156 794.792969 625.917969 Z M 943.335938 699.183594 C 949.648438 700.492188 944.4375 690.074219 944.4375 690.074219 C 944.4375 690.074219 927 673.589844 918.820312 671.21875 C 914.453125 669.9375 913.738281 672.867188 914.089844 675.882812 C 890.261719 655.746094 863.734375 636.777344 835.695312 623.9375 C 788.027344 602.101562 776.839844 621.421875 779.042969 624.609375 C 794.78125 647.414062 833.0625 661.96875 862.363281 673.617188 C 890 684.605469 911.703125 688.324219 922.269531 689.90625 C 926.949219 695.527344 933.714844 702.941406 941.210938 709.394531 C 955.507812 721.703125 966.113281 726.367188 966.113281 726.367188 C 966.113281 726.367188 956.222656 711.542969 943.335938 699.183594 "/>
<path style=" stroke:none;fill-rule:nonzero;fill:rgb(29.798889%,66.668701%,81.568909%);fill-opacity:1;" d="M 309.925781 633.785156 C 312.308594 626.554688 311.675781 616.730469 307.617188 606.859375 C 304.039062 598.148438 298.503906 591.0625 292.421875 586.488281 C 300.835938 589.105469 308.824219 596.386719 312.90625 606.273438 C 317.3125 616.964844 315.886719 627.746094 309.925781 633.785156 Z M 282.492188 608.722656 C 280.523438 609.214844 278.320312 608.074219 277.578125 606.171875 C 276.828125 604.277344 277.800781 602.375 279.746094 601.894531 C 281.714844 601.402344 283.90625 602.53125 284.671875 604.410156 C 285.421875 606.300781 284.4375 608.242188 282.492188 608.722656 Z M 466.269531 580.125 C 475.683594 571.289062 471.40625 554.558594 471.40625 554.558594 C 471.40625 554.558594 448.667969 548.765625 437.335938 556.90625 C 431.292969 561.234375 429.765625 568.710938 429.710938 574.851562 C 399.285156 565.289062 364.566406 559.523438 335.179688 566.519531 C 309.054688 572.738281 257.785156 600.234375 263.460938 619.023438 C 269.359375 638.539062 334.828125 641.46875 363.351562 633.136719 C 390.769531 625.117188 415.554688 613.828125 438.292969 593.71875 C 443.625 599.265625 451.453125 605.78125 460.671875 608.515625 C 478.261719 613.75 494.015625 603.5 494.015625 603.5 C 494.015625 603.5 482.515625 586.203125 466.269531 580.125 "/>
<path style=" stroke:none;fill-rule:nonzero;fill:rgb(29.798889%,66.668701%,81.568909%);fill-opacity:1;" d="M 935.777344 733.445312 C 937.242188 731.707031 936.464844 727.730469 933.300781 722.117188 C 930.5 717.167969 926.402344 711.90625 921.996094 707.398438 C 927.894531 712.113281 933.636719 718.566406 936.828125 724.191406 C 940.277344 730.257812 939.746094 733.664062 935.777344 733.445312 Z M 915.917969 712.152344 C 914.527344 711.53125 912.921875 710.160156 912.339844 709.070312 C 911.753906 707.996094 912.402344 707.605469 913.789062 708.242188 C 915.152344 708.875 916.746094 710.261719 917.328125 711.351562 C 917.925781 712.414062 917.304688 712.789062 915.917969 712.152344 Z M 1020.09375 787.621094 C 1023.195312 789.527344 1018.890625 781.503906 1018.890625 781.503906 C 1018.890625 781.503906 1007.933594 767.378906 1003.566406 764.53125 C 1001.234375 763.015625 1001.402344 764.957031 1002.113281 767.121094 C 990.304688 753.582031 969.910156 732.1875 948.441406 718.453125 C 911.613281 694.90625 901.175781 706.0625 902.824219 708.527344 C 916.085938 728.519531 947.925781 742.785156 970.585938 756.351562 C 992.15625 769.257812 1003.214844 775.324219 1008.570312 777.992188 C 1011.824219 782.554688 1016.363281 788.617188 1020.964844 794.164062 C 1029.78125 804.75 1035.121094 809.714844 1035.121094 809.714844 C 1035.121094 809.714844 1028.183594 798.105469 1020.09375 787.621094 "/>
<path style=" stroke:none;fill-rule:nonzero;fill:rgb(29.798889%,66.668701%,81.568909%);fill-opacity:1;" d="M 956.414062 694.609375 C 957.441406 693.871094 956.105469 690.214844 952.371094 684.0625 C 949.089844 678.644531 944.578125 672.347656 939.835938 666.503906 C 946.003906 673.292969 952.191406 681.445312 955.921875 687.613281 C 959.941406 694.257812 959.992188 696.722656 956.414062 694.609375 Z M 934.921875 667.371094 C 933.546875 666.203125 931.835938 664.3125 931.125 663.132812 C 930.421875 661.96875 930.96875 661.953125 932.339844 663.121094 C 933.703125 664.289062 935.375 666.179688 936.089844 667.359375 C 936.800781 668.523438 936.28125 668.523438 934.921875 667.371094 Z M 1040.550781 803.960938 C 1046.191406 814.351562 1043.003906 807.691406 1043.003906 807.691406 C 1043.003906 807.691406 1028.015625 778.082031 1023.179688 770.320312 C 1020.601562 766.1875 1020.550781 766.847656 1021.132812 768.378906 C 1005.316406 740.894531 987.324219 714.410156 966.28125 690.785156 C 928.777344 648.660156 919.804688 655.488281 921.75 658.273438 C 939.523438 683.710938 968.667969 707.101562 990.808594 732.421875 C 1011.644531 756.261719 1021.832031 771.914062 1027.210938 780.324219 C 1030.335938 786.144531 1034.679688 794.242188 1039.046875 802.679688 C 1047.371094 818.785156 1056.1875 837.5625 1056.1875 837.5625 C 1056.1875 837.5625 1050.507812 823.605469 1040.550781 803.960938 "/>
<path style=" stroke:none;fill-rule:nonzero;fill:rgb(29.798889%,66.668701%,81.568909%);fill-opacity:1;" d="M 933.652344 926.21875 C 934.84375 921.605469 933.328125 914.726562 928.957031 906.910156 C 925.109375 900.019531 919.765625 893.695312 914.21875 889.09375 C 921.359375 892.59375 928.6875 899.550781 933.054688 907.363281 C 937.785156 915.800781 937.746094 922.925781 933.652344 926.21875 Z M 909.046875 904.28125 C 907.488281 904.347656 905.558594 903.152344 904.714844 901.613281 C 903.871094 900.082031 904.429688 898.761719 905.972656 898.710938 C 907.515625 898.65625 909.445312 899.863281 910.289062 901.40625 C 911.144531 902.933594 910.589844 904.214844 909.046875 904.28125 Z M 1049.082031 926.375 C 1058.003906 924.652344 1052.609375 912.78125 1052.609375 912.78125 C 1052.609375 912.78125 1031.777344 900.109375 1020.09375 901.378906 C 1013.859375 902.050781 1011.773438 906.417969 1012.652344 910.476562 C 997.304688 900.070312 970.804688 884.585938 944.75 882.136719 C 900.074219 877.9375 892.101562 905.847656 894.527344 909.167969 C 908.578125 928.460938 947.613281 933.382812 974.007812 934.125 C 999.171875 934.808594 1013.71875 929.003906 1020.847656 924.871094 C 1024.996094 929.703125 1033.265625 935.988281 1042.78125 940.640625 C 1060.917969 949.515625 1075.152344 949.996094 1075.152344 949.996094 C 1075.152344 949.996094 1064.742188 936.015625 1049.082031 926.375 "/>
</g>
</svg>
