<?xml version="1.0" encoding="UTF-8"?>
<svg width="22px" height="22px" viewBox="0 0 22 22" version="1.1" xmlns="http://www.w3.org/2000/svg" xmlns:xlink="http://www.w3.org/1999/xlink">
    <!-- Generator: Sketch 63.1 (92452) - https://sketch.com -->
    <title>Icon/Search</title>
    <desc>Created with Sketch.</desc>
    <g id="Design" stroke="none" stroke-width="1" fill="none" fill-rule="evenodd">
        <g id="Homepage" transform="translate(-974.000000, -34.000000)" fill="#D2CE9E">
            <g id="Group-12">
                <g id="Icon/Search" transform="translate(974.000000, 34.000000)">
                    <path d="M15.7142857,13.8285714 L14.7148571,13.8285714 L14.3691429,13.4828571 C15.6011429,12.056 16.3428571,10.2017143 16.3428571,8.17142857 C16.3428571,3.65828571 12.6845714,0 8.17142857,0 C3.65828571,0 6.69940294e-15,3.65828571 6.69940294e-15,8.17142857 C6.69940294e-15,12.6845714 3.65828571,16.3428571 8.17142857,16.3428571 C10.2017143,16.3428571 12.056,15.6011429 13.4828571,14.3754286 L13.8285714,14.7211429 L13.8285714,15.7142857 L20.1142857,21.9874286 L21.9874286,20.1142857 L15.7142857,13.8285714 Z M8.17142857,13.8285714 C5.04742857,13.8285714 2.51428571,11.2954286 2.51428571,8.17142857 C2.51428571,5.04742857 5.04742857,2.51428571 8.17142857,2.51428571 C11.2954286,2.51428571 13.8285714,5.04742857 13.8285714,8.17142857 C13.8285714,11.2954286 11.2954286,13.8285714 8.17142857,13.8285714 Z" id="Shape"></path>
                </g>
            </g>
        </g>
    </g>
</svg>