<?xml version="1.0" encoding="UTF-8"?>
<svg width="27px" height="24px" viewBox="0 0 27 24" version="1.1" xmlns="http://www.w3.org/2000/svg" xmlns:xlink="http://www.w3.org/1999/xlink">
    <!-- Generator: Sketch 63.1 (92452) - https://sketch.com -->
    <title>Icon/Profile</title>
    <desc>Created with Sketch.</desc>
    <g id="Subs" stroke="none" stroke-width="1" fill="none" fill-rule="evenodd">
        <g id="Products_Categories/Subcategory" transform="translate(-1283.000000, -39.000000)">
            <g id="Group-12">
                <g id="Group-8" transform="translate(1244.000000, 32.000000)">
                    <g id="Icon/Profile" transform="translate(34.000000, 0.000000)">
                        <g id="ic-person-pin-48px">
                            <polygon id="Path" points="0 0 37 0 37 37 0 37"></polygon>
                            <path d="M18.8854167,7.70833333 C22.0758102,7.70833333 24.6666667,10.2991898 24.6666667,13.4895833 C24.6666667,16.6799769 22.0758102,19.2708333 18.8854167,19.2708333 C15.6950231,19.2708333 13.1041667,16.6799769 13.1041667,13.4895833 C13.1041667,10.2991898 15.6950231,7.70833333 18.8854167,7.70833333 Z M31.6041667,30.8333333 L5.39583333,30.8333333 L5.39583333,28.9255208 C5.39583333,24.6859375 14.1319444,22.3541667 18.5,22.3541667 C22.8680556,22.3541667 31.6041667,24.6859375 31.6041667,28.9255208 L31.6041667,30.8333333 Z" id="Shape" fill="#D2CE9E"></path>
                        </g>
                    </g>
                </g>
            </g>
        </g>
    </g>
</svg>